PathFileType	4	(X/Y/Z)	Patient4_TMGait_0pt7_02_right_46.trc.trc
DataRate	CameraRate	NumFrames	NumMarkers	Units	OrigDataRate	OrigDataStartFrame	OrigNumFrames
86.419753086420	86.419753086420	4	33	mm	86.419753086420	89	       141
Frame#	Time	Sacral			L.Shoulder			Chest			R.Shoulder			Neck			R.ASIS			L.ASIS			R.Thigh.Superior			R.Thigh.Lateral			R.Thigh.Inferior			R.Patella			L.Thigh.Superior			L.Thigh.Lateral			L.Thigh.Inferior			L.Patella			L.Shank.Superior			L.Shank.Lateral			L.Shank.Inferior			R.Shank.Superior			R.Shank.Lateral			R.Shank.Inferior			R.Heel			R.Midfoot.Superior			R.Midfoot.Lateral			R.Toe			L.Heel			L.Midfoot.Lateral			L.Midfoot.Superior			L.Toe			L.Elbow			L.Wrist			R.Elbow			R.Wrist			
		X1	Y1	Z1	X2	Y2	Z2	X3	Y3	Z3	X4	Y4	Z4	X5	Y5	Z5	X6	Y6	Z6	X7	Y7	Z7	X8	Y8	Z8	X9	Y9	Z9	X10	Y10	Z10	X11	Y11	Z11	X12	Y12	Z12	X13	Y13	Z13	X14	Y14	Z14	X15	Y15	Z15	X16	Y16	Z16	X17	Y17	Z17	X18	Y18	Z18	X19	Y19	Z19	X20	Y20	Z20	X21	Y21	Z21	X22	Y22	Z22	X23	Y23	Z23	X24	Y24	Z24	X25	Y25	Z25	X26	Y26	Z26	X27	Y27	Z27	X28	Y28	Z28	X29	Y29	Z29	X30	Y30	Z30	X31	Y31	Z31	X32	Y32	Z32	X33	Y33	Z33	

89	53.088285714286	751.817002930001	1010.374182395474	447.693765535357	939.334445346290	1423.941182904410	256.209948715039	1049.057457349610	1351.359905024223	411.975124553290	982.157668914928	1436.775760693184	587.259134831353	953.106082158465	1488.313341109560	409.750859376554	973.936684646221	932.153665392161	559.392981420866	961.151564462693	956.189981975207	285.813263741186	1015.708115278834	731.036000138825	537.966844419636	938.204763550546	622.279309024181	605.004699680076	1020.090159489782	563.270642946186	531.749325951925	1011.045982789799	453.731596024980	551.494948437656	1026.258071886773	761.807449628586	317.514589736756	954.002224505370	639.141007033160	253.698277653920	1044.594514708354	569.930128136055	320.577376995356	1052.419458562815	500.197980022576	328.568688553758	1031.200207758986	426.687215514214	317.568852749385	953.206974021851	306.569829027391	260.652607458365	1011.465269457213	198.236284687196	332.007456856703	930.459515883338	388.840768342260	558.271997857979	808.936130244148	355.330483439542	621.438536473339	786.452124440426	248.362011034938	571.306558950422	579.515859842387	198.708152363612	553.294951699850	746.805362456676	129.307920725964	581.765315270923	639.761020506690	134.715036421470	620.704199999407	804.764429141045	28.520580935615	597.145451017473	892.932449814532	37.997380401690	366.362041827867	971.371704371588	35.161153024311	289.653073610603	1051.381640387870	97.389520125695	320.719465601097	1182.215880166237	47.812437692622	300.759961912059	825.344774744959	1086.925365494977	161.220267233557	821.914927592482	826.063894828805	176.899065332854	1085.130187313631	1110.336281673852	699.402376289530	1271.340698394171	1223.845604981430	581.346495307812	
90	53.099857142857	750.716395917909	1011.002811520612	445.093963710790	939.299096911144	1425.004629120479	254.535942989823	1048.079736970127	1352.271751072298	410.937283654537	979.999924575942	1437.351156149077	585.988471762780	951.993667638256	1489.202860065836	408.236177041755	972.766291234257	932.925893180628	557.593890487980	960.703819200729	957.143831991754	284.169363595218	1019.422801606041	734.261930975478	536.582664646240	944.618088359727	624.012798207094	603.634063580309	1028.328728196868	566.635099135324	530.553049716414	1020.916522342332	456.147800876992	550.249345601937	1023.510424912713	760.827960071920	315.908551016895	950.290140565638	639.291094153703	251.981161486582	1039.568941379141	569.109017969904	319.466643832456	1046.492797178411	499.422122647782	327.464382766172	1024.974188797612	426.165874885428	316.515976593210	946.451873935983	306.316981324596	259.845274769978	1004.050529235881	197.971638002806	331.631271717000	939.104247834035	391.624724948158	557.031066824690	816.407746076045	361.382753556341	619.780117800855	792.043585383312	254.463341161350	570.525810707839	585.367202488509	213.365762131926	551.222670966044	748.365576129962	134.302129757670	581.347449964166	641.196255863945	145.901507082239	619.197881726128	799.516895409817	27.379376582952	597.437931682907	884.846579892745	37.884874833648	366.300923725844	963.263740305405	35.041801157160	289.576384774930	1043.297282227951	97.255328789475	320.633807779696	1174.132172103350	47.652324787362	300.685433082892	831.000603029821	1086.389779518930	156.668127014748	839.755577465112	825.373903692806	171.344556921155	1074.065253641351	1107.387161214447	698.761129738955	1267.617856558005	1208.931830866151	581.417552531454	
91	53.111428571429	749.472996233450	1011.505968312392	442.597636163562	939.280385459133	1425.933245368560	252.973528220708	1047.022385308521	1353.020673316483	410.073270198312	977.678319228288	1437.774077927227	584.851534822199	950.845911840036	1489.974963051378	406.845386878391	971.480206552447	933.683406016050	555.959996255151	960.162687400907	957.942575390795	282.616205967852	1022.816305628619	737.629341819713	535.109315056896	950.835753908657	626.009955031652	602.330478204201	1036.137690931331	570.330006450817	529.265694481513	1030.548923030261	458.955287932040	548.914805139072	1020.930112462376	759.949404906558	314.328390482341	946.654300330253	639.387990205789	250.443127852577	1034.780053799050	568.312472951763	318.351024434596	1040.856379696782	498.662986484617	326.432963025035	1019.001809180337	425.622753446914	315.578569079646	939.874954643950	306.104366094428	259.116685198019	996.718866158808	197.682574033432	331.301953736398	947.694033910759	394.648792867153	555.723368050186	824.041538150575	367.234284799768	618.076432022710	798.069973282214	260.409208421274	569.588398812043	592.046795021937	226.773928906863	548.821736572923	750.748170666925	139.340304852221	580.768844139649	643.658020294393	156.419653001998	617.459213431308	795.665857683892	26.725153599704	597.806481551094	876.726541586879	37.812740056025	366.247344865095	955.124037108323	34.948707196463	289.511053583787	1035.204883467435	97.110854852325	320.574545676850	1166.029565993210	47.424480386400	300.625143036514	837.020651159062	1085.842479741667	152.055545145547	858.366781597205	825.255378703213	165.974942736198	1062.681928234832	1104.578926995057	698.095890299901	1263.617520797279	1192.487381989391	581.829297803890	
92	53.123000000000	748.097881392281	1011.916822187784	440.191646218850	939.242492213171	1426.745257734825	251.525185825288	1045.883711963826	1353.630292836064	409.355241252577	975.235380107907	1438.073465226941	583.832138687056	949.681130141399	1490.647012242258	405.571906634985	970.076651243837	934.459760024660	554.466044479560	959.552870049895	958.614159252770	281.127925559590	1025.848910227555	741.131736207008	533.503310772095	956.843749128122	628.278318040414	601.096553005975	1043.497197120965	574.337479040409	527.897894502984	1039.930065757787	462.138788254023	547.590185805715	1018.596523664495	759.181419786572	312.739166386203	943.117294723440	639.424346803698	249.109347606631	1030.266053023325	567.529058607987	317.250852638907	1035.549007753613	497.915217923077	325.517064082566	1013.315394496060	425.058785276831	314.784079031112	933.510490800000	305.939438252487	258.479374334094	989.484230757526	197.369084727293	331.033836551312	956.219558162332	397.890194338534	554.441163062914	831.781867344860	372.808344194624	616.365623429458	804.548010051627	266.077358214832	568.537578839481	599.398973387041	238.514739143514	546.162441144275	754.116305049291	144.285558541919	580.038779236926	647.222343603872	165.920803183457	615.538371303678	793.681645817104	26.724189764855	598.215148808062	868.581445825237	37.777955485333	366.197117966903	946.963858430908	34.886000202986	289.455271043955	1027.109259307227	96.968219333908	320.543163887626	1157.916239505469	47.152112877007	300.576230035242	843.473370114644	1085.297851268607	147.407548808848	877.672111818229	825.782101975164	160.848970046314	1051.082483198076	1101.965162599382	697.410142769167	1259.192391812986	1174.546605192156	582.630153635209	
